 Johnny English 2003 720p HDTVRip H264 AAC-Rx(Phoenix-RG).mp4
      Format : MPEG-4 / AVC
      File size : 1.30 GiB
      Duration : 1h 27mn
      Bit rate : 1 800 Kbps
      Maximum bit rate : 16.4 Mbps
      Width : 1 280 pixels
      Height : 720 pixels
      Display aspect ratio : 16/9
      Frame rate mode : Constant
      Frame rate : 23.976 fps
      Resolution : 24 bits
      Colorimetry : 4:2:0
      Scan type : Progressive
      Bits/(Pixel*Frame) : 0.081
      Stream size : 1.10 GiB (85%)
      
   AUDIO:
      Format : AAC / LC
      Duration : 1h 27mn
      Bit rate mode : Variable
      Bit rate : 322 Kbps
      Maximum bit rate : 447 Kbps
      Channel(s) : 6 channels
      Channel positions : Front: L C R, Rear: L R, LFE
      Sampling rate : 48.0 KHz
      Resolution : 16 bits
      Stream size : 202 MiB (15%)